<svg viewBox="0 0 806 200" fill="none" xmlns="http://www.w3.org/2000/svg">
<g clip-path="url(#clip0)">
<rect x="7" y="75.3" width="50" height="50" fill="white"/>
<rect x="143.6" y="75.3" width="50" height="50" fill="white"/>
<rect x="32" y="32" width="50" height="50" transform="rotate(-30 32 32)" fill="white"/>
<rect x="100.3" y="150.3" width="50" height="50" transform="rotate(-30 100.3 150.3)" fill="white"/>
<rect x="57" y="125.3" width="50" height="50" transform="rotate(30 57 125.3)" fill="white"/>
<rect x="125.3" y="7" width="50" height="50" transform="rotate(30 125.3 7)" fill="white"/>
<path d="M220.609 93.082C220.609 75.4909 225.076 61.3633 234.008 50.6992C243.031 39.944 254.88 34.5664 269.555 34.5664C284.229 34.5664 296.033 39.944 304.965 50.6992C313.988 61.3633 318.5 75.4909 318.5 93.082C318.5 110.582 314.034 124.71 305.102 135.465C296.169 146.129 284.32 151.461 269.555 151.461C254.789 151.461 242.94 146.129 234.008 135.465C225.076 124.71 220.609 110.582 220.609 93.082ZM244.125 93.082C244.125 105.113 246.358 114.638 250.824 121.656C255.29 128.583 261.534 132.047 269.555 132.047C277.576 132.047 283.819 128.583 288.285 121.656C292.751 114.638 294.984 105.113 294.984 93.082C294.984 81.0508 292.751 71.5716 288.285 64.6445C283.819 57.6263 277.576 54.1172 269.555 54.1172C261.534 54.1172 255.29 57.6263 250.824 64.6445C246.358 71.5716 244.125 81.0508 244.125 93.082ZM264.223 113.043L276.664 101.832L318.5 145.855L306.195 156.793L264.223 113.043ZM333.539 106.344V37.0273H356.371V106.48C356.371 123.525 362.934 132.047 376.059 132.047C389.184 132.047 395.746 123.525 395.746 106.48V37.0273H418.578V106.344C418.578 120.927 415.023 132.092 407.914 139.84C400.896 147.587 390.277 151.461 376.059 151.461C362.478 151.461 351.996 147.77 344.613 140.387C337.23 132.913 333.539 121.565 333.539 106.344ZM461.371 105.66H489.535L482.426 82.0078C479.6 72.5286 477.413 64.918 475.863 59.1758H475.043C472.947 67.1055 470.805 74.7161 468.617 82.0078L461.371 105.66ZM423.91 149L463.422 37.0273H487.621L527.133 149H503.207L495.277 123.98H455.766L447.836 149H423.91ZM560.082 87.2031H579.633C591.299 87.2031 597.133 81.9167 597.133 71.3438C597.133 66.7865 595.583 63.1862 592.484 60.543C589.385 57.8997 585.056 56.5781 579.496 56.5781H560.082V87.2031ZM537.387 149V37.0273H583.734C595.583 37.0273 604.698 40.0807 611.078 46.1875C617.458 52.2943 620.648 60.0417 620.648 69.4297C620.648 77.0859 619.099 83.2839 616 88.0234C612.901 92.6719 609.255 95.9531 605.062 97.8672C608.253 100.419 610.486 102.926 611.762 105.387C613.129 107.848 614.268 111.858 615.18 117.418C617.185 127.626 621.469 138.154 628.031 149H602.602C597.406 140.523 593.669 130.543 591.391 119.059C590.479 114.684 589.203 111.493 587.562 109.488C585.922 107.483 583.37 106.48 579.906 106.48H560.082V149H537.387ZM628.578 56.5781V37.0273H713.617V56.5781H682.445V149H659.887V56.5781H628.578ZM718.539 132.594L773.5 56.5781H723.051V37.0273H801.801V53.8438L746.84 129.586H803.305V149H718.539V132.594Z" fill="white"/>
</g>
<defs>
<clipPath id="clip0">
<rect width="806" height="200" fill="white"/>
</clipPath>
</defs>
</svg>
