<svg viewBox="0 0 826 218" fill="none" xmlns="http://www.w3.org/2000/svg">
<rect y="82.204" width="53.5906" height="53.5906" fill="white"/>
<rect x="146.409" y="82.204" width="53.5906" height="53.5906" fill="white"/>
<rect x="26.7952" y="35.7946" width="53.5906" height="53.5906" transform="rotate(-30 26.7952 35.7946)" fill="white"/>
<rect x="100" y="162.59" width="53.5906" height="53.5906" transform="rotate(-30 100 162.59)" fill="white"/>
<rect x="53.5907" y="135.795" width="53.5906" height="53.5906" transform="rotate(30 53.5907 135.795)" fill="white"/>
<rect x="126.795" y="8.99932" width="53.5906" height="53.5906" transform="rotate(30 126.795 8.99932)" fill="white"/>
<path d="M354.547 210.818V75.8182H331.791V92.054H330.449C326.933 84.9588 319.71 74.5398 302.388 74.5398C279.696 74.5398 261.862 92.3097 261.862 125.037C261.862 157.381 279.185 175.726 302.324 175.726C319.199 175.726 326.805 165.69 330.449 158.531H331.408V210.818H354.547ZM331.855 124.909C331.855 143.957 323.545 156.741 308.78 156.741C293.503 156.741 285.449 143.318 285.449 124.909C285.449 106.628 293.375 93.5241 308.78 93.5241C323.673 93.5241 331.855 105.861 331.855 124.909ZM440.967 132.707C440.967 147.665 430.292 155.08 420.065 155.08C408.943 155.08 401.528 147.217 401.528 134.753V75.8182H378.389V138.332C378.389 161.919 391.812 175.278 411.116 175.278C425.818 175.278 436.173 167.544 440.648 156.55H441.67V174H464.106V75.8182H440.967V132.707ZM516.154 175.982C531.558 175.982 540.763 168.759 544.982 160.513H545.749V174H567.993V108.29C567.993 82.3381 546.835 74.5398 528.107 74.5398C507.46 74.5398 491.608 83.7443 486.495 101.642L508.1 104.71C510.401 97.9986 516.921 92.2457 528.235 92.2457C538.973 92.2457 544.854 97.7429 544.854 107.395V107.778C544.854 114.426 537.887 114.746 520.564 116.599C501.516 118.645 483.299 124.334 483.299 146.45C483.299 165.754 497.425 175.982 516.154 175.982ZM522.162 158.979C512.51 158.979 505.607 154.568 505.607 146.067C505.607 137.182 513.341 133.474 523.696 132.004C529.769 131.173 541.914 129.639 544.918 127.21V138.78C544.918 149.71 536.097 158.979 522.162 158.979ZM591.26 174H614.399V116.28C614.399 103.815 623.796 94.9943 636.516 94.9943C640.415 94.9943 645.273 95.6974 647.254 96.3366V75.0511C645.145 74.6676 641.502 74.4119 638.945 74.4119C627.695 74.4119 618.299 80.804 614.719 92.1818H613.696V75.8182H591.26V174ZM716.928 75.8182H697.56V52.2955H674.421V75.8182H660.486V93.7159H674.421V148.304C674.293 166.777 687.716 175.854 705.103 175.342C711.686 175.151 716.225 173.872 718.718 173.041L714.818 154.952C713.54 155.271 710.919 155.847 708.043 155.847C702.226 155.847 697.56 153.801 697.56 144.469V93.7159H716.928V75.8182ZM735.001 174H815.605V154.824H765.747V153.993L813.943 91.6065V75.8182H736.663V94.9943H785.626V95.8253L735.001 159.298V174Z" fill="white"/>
</svg>
